<mxfile host="app.diagrams.net" modified="2023-10-23T15:41:10.359Z" agent="Mozilla/5.0 (Macintosh; Intel Mac OS X 10_15_7) AppleWebKit/605.1.15 (KHTML, like Gecko) Version/17.0 Safari/605.1.15" version="22.0.6" etag="4qnMs-SOVQOu9BCr3PKu" type="github">
  <diagram name="Page-1" id="FtnX6R01dTXjtMVwxfWk">
    <mxGraphModel>
      <root>
        <mxCell id="0" />
        <mxCell id="1" parent="0" />
      </root>
    </mxGraphModel>
  </diagram>
</mxfile>
